<svg width="572" height="471" viewBox="0 0 572 471" fill="none" xmlns="http://www.w3.org/2000/svg">
<g clip-path="url(#clip0_404_355)">
<path d="M42.5827 477.718C42.5827 477.718 -51.4323 367.754 82.2504 332.424C215.933 297.095 251.158 266.849 314.357 175.302C377.555 83.755 649.476 108.24 538.869 481.946L42.5827 477.718Z" fill="white"/>
<path d="M79.667 262.548C167.302 264.666 254.415 216.443 299.187 141.021C307.833 126.457 304.391 105.863 291.481 94.909C278.57 83.9547 257.707 83.9266 244.768 94.8496C223.349 112.927 194.948 120.053 167.392 125.074C139.836 130.095 111.391 133.742 86.4718 146.57C61.5523 159.398 40.355 183.936 40.745 211.974C41.135 240.012 70.0886 262.317 79.667 262.548Z" fill="white"/>
<path d="M529.927 350.979H427.591V473.852H529.927V350.979Z" fill="#CCD8FF"/>
<path d="M459.284 357.408H434.012V362.092H459.284V357.408Z" fill="#E2E8FC"/>
<path d="M489.86 357.408H464.588V362.092H489.86V357.408Z" fill="#E2E8FC"/>
<path d="M519.812 357.408H494.54V362.092H519.812V357.408Z" fill="#E2E8FC"/>
<path d="M459.596 365.839H434.324V370.523H459.596V365.839Z" fill="#E2E8FC"/>
<path d="M490.172 365.839H464.9V370.523H490.172V365.839Z" fill="#E2E8FC"/>
<path d="M520.124 365.839H494.852V370.523H520.124V365.839Z" fill="#E2E8FC"/>
<path d="M459.596 374.271H434.324V378.954H459.596V374.271Z" fill="#E2E8FC"/>
<path d="M490.172 374.271H464.9V378.954H490.172V374.271Z" fill="#E2E8FC"/>
<path d="M520.124 374.271H494.852V378.954H520.124V374.271Z" fill="#E2E8FC"/>
<path d="M459.907 382.702H434.635V387.386H459.907V382.702Z" fill="#E2E8FC"/>
<path d="M490.484 382.702H465.212V387.386H490.484V382.702Z" fill="#E2E8FC"/>
<path d="M520.436 382.702H495.164V387.386H520.436V382.702Z" fill="#E2E8FC"/>
<path d="M460.22 391.133H434.948V395.817H460.22V391.133Z" fill="#E2E8FC"/>
<path d="M490.796 391.133H465.524V395.817H490.796V391.133Z" fill="#E2E8FC"/>
<path d="M520.748 391.133H495.476V395.817H520.748V391.133Z" fill="#E2E8FC"/>
<path d="M460.22 399.564H434.948V404.248H460.22V399.564Z" fill="#E2E8FC"/>
<path d="M490.796 399.564H465.524V404.248H490.796V399.564Z" fill="#E2E8FC"/>
<path d="M520.748 399.564H495.476V404.248H520.748V399.564Z" fill="#E2E8FC"/>
<path d="M520.748 412.414H434.948V443.64H520.748V412.414Z" fill="#E2E8FC"/>
<path d="M532.223 323.293H500.399V473.852H532.223V323.293Z" fill="#CCD8FF"/>
<path d="M538.572 337.08H529.212V473.852H538.572V337.08Z" fill="#CCD8FF"/>
<path d="M118.374 394.852H69.0778V474.167H118.374V394.852Z" fill="#CCD8FF"/>
<path d="M110.904 402.684H74.2444V409.866H110.904V402.684Z" fill="#E2E8FC"/>
<path d="M110.904 414.681H74.2444V421.863H110.904V414.681Z" fill="#E2E8FC"/>
<path d="M110.923 426.675H74.2632V433.857H110.923V426.675Z" fill="#E2E8FC"/>
<path d="M110.923 438.425H74.2632V445.607H110.923V438.425Z" fill="#E2E8FC"/>
<path d="M154.285 369.559H104.989V474.167H154.285V369.559Z" fill="#CCD8FF"/>
<path d="M259.775 390.168H149.605V474.167H259.775V390.168Z" fill="#CCD8FF"/>
<path d="M69.0777 427.64H41.6217V474.167H69.0777V427.64Z" fill="#CCD8FF"/>
<path d="M168.833 350.779H167.897V390.168H168.833V350.779Z" fill="#CCD8FF"/>
<path d="M179.342 359.847H178.406V390.168H179.342V359.847Z" fill="#CCD8FF"/>
<path d="M160.538 344.493H158.354V390.168H160.538V344.493Z" fill="#CCD8FF"/>
<path d="M83.9134 383.482H74.8654V394.852H83.9134V383.482Z" fill="#CCD8FF"/>
<path d="M128.389 357.271H108.733V369.555H128.389V357.271Z" fill="#CCD8FF"/>
<path d="M145.583 344.493H137.159V369.559H145.583V344.493Z" fill="#CCD8FF"/>
<path d="M96.3371 367.329H88.8491V394.852H96.3371V367.329Z" fill="#CCD8FF"/>
<path d="M52.3857 432.167H45.0537V439.506H52.3857V432.167Z" fill="#E2E8FC"/>
<path d="M64.3977 432.167H57.0657V439.506H64.3977V432.167Z" fill="#E2E8FC"/>
<path d="M52.3857 444.502H45.0537V451.84H52.3857V444.502Z" fill="#E2E8FC"/>
<path d="M64.3977 444.502H57.0657V451.84H64.3977V444.502Z" fill="#E2E8FC"/>
<path d="M52.3857 456.836H45.0537V464.175H52.3857V456.836Z" fill="#E2E8FC"/>
<path d="M64.3977 456.836H57.0657V464.175H64.3977V456.836Z" fill="#E2E8FC"/>
<path d="M113.731 376.207H110.923V470.823H113.731V376.207Z" fill="#E2E8FC"/>
<path d="M126.211 376.207H123.403V470.823H126.211V376.207Z" fill="#E2E8FC"/>
<path d="M137.446 376.207H134.638V470.823H137.446V376.207Z" fill="#E2E8FC"/>
<path d="M149.305 376.207H146.497V470.823H149.305V376.207Z" fill="#E2E8FC"/>
<path d="M244.628 391.014H195.332V470.329H244.628V391.014Z" fill="#CCD8FF"/>
<path d="M237.161 398.849H200.501V406.031H237.161V398.849Z" fill="#E2E8FC"/>
<path d="M237.161 410.843H200.501V418.025H237.161V410.843Z" fill="#E2E8FC"/>
<path d="M237.18 422.84H200.52V430.022H237.18V422.84Z" fill="#E2E8FC"/>
<path d="M237.18 434.591H200.52V441.773H237.18V434.591Z" fill="#E2E8FC"/>
<path d="M280.542 365.721H231.246V470.33H280.542V365.721Z" fill="#CCD8FF"/>
<path d="M386.032 386.33H275.862V470.329H386.032V386.33Z" fill="#CCD8FF"/>
<path d="M195.332 423.802H167.876V470.33H195.332V423.802Z" fill="#CCD8FF"/>
<path d="M295.091 346.944H294.155V386.333H295.091V346.944Z" fill="#CCD8FF"/>
<path d="M305.599 356.009H304.663V386.33H305.599V356.009Z" fill="#CCD8FF"/>
<path d="M286.794 340.655H284.61V386.33H286.794V340.655Z" fill="#CCD8FF"/>
<path d="M210.17 379.647H201.122V391.017H210.17V379.647Z" fill="#CCD8FF"/>
<path d="M254.646 353.437H234.99V365.721H254.646V353.437Z" fill="#CCD8FF"/>
<path d="M271.837 340.655H263.413V365.721H271.837V340.655Z" fill="#CCD8FF"/>
<path d="M222.594 363.494H215.106V391.017H222.594V363.494Z" fill="#CCD8FF"/>
<path d="M178.643 428.33H171.311V435.668H178.643V428.33Z" fill="#E2E8FC"/>
<path d="M190.655 428.33H183.323V435.668H190.655V428.33Z" fill="#E2E8FC"/>
<path d="M178.643 440.665H171.311V448.003H178.643V440.665Z" fill="#E2E8FC"/>
<path d="M190.655 440.665H183.323V448.003H190.655V440.665Z" fill="#E2E8FC"/>
<path d="M178.643 452.999H171.311V460.337H178.643V452.999Z" fill="#E2E8FC"/>
<path d="M190.655 452.999H183.323V460.337H190.655V452.999Z" fill="#E2E8FC"/>
<path d="M239.988 372.369H237.18V466.985H239.988V372.369Z" fill="#E2E8FC"/>
<path d="M252.468 372.369H249.66V466.985H252.468V372.369Z" fill="#E2E8FC"/>
<path d="M263.703 372.369H260.895V466.985H263.703V372.369Z" fill="#E2E8FC"/>
<path d="M275.562 372.369H272.754V466.985H275.562V372.369Z" fill="#E2E8FC"/>
<path d="M370.822 384.095H321.526V463.41H370.822V384.095Z" fill="#CCD8FF"/>
<path d="M363.356 391.93H326.696V399.112H363.356V391.93Z" fill="#E2E8FC"/>
<path d="M363.356 403.923H326.696V411.105H363.356V403.923Z" fill="#E2E8FC"/>
<path d="M363.375 415.917H326.715V423.1H363.375V415.917Z" fill="#E2E8FC"/>
<path d="M363.375 427.671H326.715V434.853H363.375V427.671Z" fill="#E2E8FC"/>
<path d="M406.733 358.801H357.438V463.41H406.733V358.801Z" fill="#CCD8FF"/>
<path d="M512.224 379.411H402.053V463.41H512.224V379.411Z" fill="#CCD8FF"/>
<path d="M321.526 416.882H294.07V463.41H321.526V416.882Z" fill="#CCD8FF"/>
<path d="M421.285 340.021H420.349V379.411H421.285V340.021Z" fill="#CCD8FF"/>
<path d="M431.793 349.089H430.857V379.41H431.793V349.089Z" fill="#CCD8FF"/>
<path d="M412.989 333.735H410.805V379.41H412.989V333.735Z" fill="#CCD8FF"/>
<path d="M336.365 372.725H327.317V384.095H336.365V372.725Z" fill="#CCD8FF"/>
<path d="M380.841 346.517H361.185V358.801H380.841V346.517Z" fill="#CCD8FF"/>
<path d="M398.032 333.735H389.608V358.801H398.032V333.735Z" fill="#CCD8FF"/>
<path d="M348.789 356.575H341.301V384.098H348.789V356.575Z" fill="#CCD8FF"/>
<path d="M304.834 421.41H297.502V428.748H304.834V421.41Z" fill="#E2E8FC"/>
<path d="M316.846 421.41H309.514V428.748H316.846V421.41Z" fill="#E2E8FC"/>
<path d="M304.834 433.745H297.502V441.083H304.834V433.745Z" fill="#E2E8FC"/>
<path d="M316.846 433.745H309.514V441.083H316.846V433.745Z" fill="#E2E8FC"/>
<path d="M304.834 446.08H297.502V453.418H304.834V446.08Z" fill="#E2E8FC"/>
<path d="M316.846 446.08H309.514V453.418H316.846V446.08Z" fill="#E2E8FC"/>
<path d="M366.183 365.449H363.375V460.066H366.183V365.449Z" fill="#E2E8FC"/>
<path d="M378.663 365.449H375.855V460.066H378.663V365.449Z" fill="#E2E8FC"/>
<path d="M389.898 365.449H387.09V460.066H389.898V365.449Z" fill="#E2E8FC"/>
<path d="M401.754 365.449H398.946V460.066H401.754V365.449Z" fill="#E2E8FC"/>
<path d="M427.591 435.615H377.047V474.121H427.591V435.615Z" fill="#CCD8FF"/>
<path d="M475.03 464.403H473.158V466.276H475.03V464.403Z" fill="#CCD8FF"/>
<path d="M401.429 104.745L393.679 102.247C396.799 92.9916 410.502 89.6098 417.547 96.3641C413.85 91.9362 416.923 83.8954 422.63 83.0647C428.336 82.2341 433.55 89.0758 431.275 94.3719C435.69 89.2788 445.237 90.4654 448.27 96.4859C451.911 91.9705 459.88 92.1142 463.361 96.7482C479.74 93.6837 496.651 95.3384 512.127 101.52L373.83 108.236C383.78 106.416 393.742 104.595 401.429 104.745ZM129.993 45.3962L137.571 42.4234C133.889 33.3678 119.987 30.8696 113.382 38.0517C116.792 33.399 113.219 25.5611 107.472 25.1021C101.725 24.6431 96.9393 31.7908 99.5539 36.9307C94.8271 32.1249 85.3735 33.9142 82.7246 40.1127C78.8059 35.8347 70.8686 36.4748 67.6799 41.3243C51.1441 39.2966 34.3731 42.0125 19.3199 49.1559L157.767 47.1418C147.711 45.9395 137.655 44.7467 129.993 45.3962Z" fill="white"/>
<path d="M13.5137 481.943C13.5137 479.458 14.4998 477.075 16.2552 475.318C18.0105 473.562 20.3912 472.575 22.8737 472.575H562.01C564.492 472.575 566.873 473.562 568.628 475.318C570.384 477.075 571.37 479.458 571.37 481.943C571.37 484.427 570.384 486.81 568.628 488.567C566.873 490.324 564.492 491.31 562.01 491.31H22.8737C21.6445 491.31 20.4274 491.068 19.2918 490.597C18.1561 490.127 17.1243 489.437 16.2552 488.567C15.386 487.697 14.6965 486.664 14.2262 485.527C13.7558 484.391 13.5137 483.173 13.5137 481.943ZM175.551 351.997V321.929C175.551 321.018 175.912 320.144 176.556 319.5C177.2 318.856 178.073 318.494 178.983 318.494H182.415V351.997H175.551Z" fill="#133BB7"/>
<path d="M150.107 323.521C151.14 323.462 151.081 323.833 151.839 324.536C152.132 324.834 152.364 325.186 152.522 325.573C153.373 327.396 153.712 329.417 153.505 331.418C155.444 329.683 157.683 328.318 160.113 327.39C159.027 325.885 158.444 324.08 157.957 322.288C157.811 321.67 157.602 321.07 157.333 320.495C157.212 320.228 157.029 319.994 156.8 319.811C156.371 319.56 155.861 319.484 155.377 319.599C154.063 319.802 152.881 320.467 151.745 321.16C150.884 321.698 150.043 322.264 149.221 322.859C148.934 323.068 150.123 323.321 150.098 323.677" fill="#89A5FB"/>
<path d="M153.639 347.425C153.639 347.425 139.789 355.488 136.345 353.077C136.345 353.077 125.958 351.06 120.158 324.764C119.987 323.996 119.821 323.203 119.659 322.391L123.653 320.742C123.653 320.742 124.352 321.582 125.462 323.009C128.489 326.897 134.573 335.144 137.942 342.682C137.942 342.682 148.513 332.714 155.124 330.372L153.639 347.425Z" fill="#316DE4"/>
<path d="M153.109 332.199C152.975 332.22 152.849 332.276 152.743 332.361C152.637 332.445 152.555 332.556 152.505 332.682C152.455 332.808 152.438 332.945 152.457 333.08C152.476 333.214 152.53 333.341 152.613 333.448C151.814 333.636 151.493 334.582 151.321 335.384C148.784 347.25 149.103 359.501 148.488 371.607C148.441 373.392 148.232 375.169 147.864 376.916C150.504 377.073 153.154 376.955 155.77 376.566C157.804 376.254 159.826 375.791 161.895 375.91C163.767 376.016 165.567 376.606 167.408 376.944C170.237 377.459 173.143 377.381 175.941 376.713C176.599 374.527 176.496 372.163 176.253 369.877C175.582 363.36 173.879 357.002 172.197 350.673C171.476 347.981 170.746 345.271 169.564 342.744C168.817 341.223 167.99 339.743 167.086 338.31L161.296 328.764C161.159 328.47 160.924 328.232 160.631 328.093C160.191 327.949 159.751 328.271 159.383 328.561C157.282 330.256 154.931 331.612 152.413 332.583" fill="#3D7BF7"/>
<path d="M160.775 325.476C157.515 327.2 154.379 329.147 151.386 331.303C151.731 331.818 151.936 332.415 151.981 333.033C152.025 333.652 151.909 334.272 151.642 334.832C155.122 331.9 158.908 329.353 162.934 327.234C162.198 326.636 161.433 326.077 160.64 325.557" fill="#0F1521"/>
<path d="M197.893 352.674H137.378V385.125H197.893V352.674Z" fill="#3D7DFE"/>
<path d="M152.653 352.674H137.378V385.125H152.653V352.674Z" fill="#3A79F8"/>
<path d="M195.7 354.542H181.011V357.727H195.7V354.542Z" fill="white"/>
<path d="M195.7 358.898H181.011V362.083H195.7V358.898Z" fill="white"/>
<path d="M158.104 328.367L161.13 327.3C161.13 327.3 162.151 326.163 169.648 333.454C177.145 340.746 188.174 357.683 188.174 357.683L173.295 383.086L168.425 379.963L175.058 357.386C175.058 357.386 140.198 320.783 165.461 329.61" fill="#316DE4"/>
<path d="M168.478 379.788C167.33 380.1 166.425 380.725 165.411 381.35C165.307 381.403 165.214 381.475 165.136 381.562C165.059 381.676 165.008 381.806 164.987 381.943C164.674 383.282 164.198 384.577 163.57 385.799C164.858 386.153 166.182 386.355 167.517 386.402C167.69 386.419 167.865 386.401 168.032 386.349C168.238 386.254 168.412 386.101 168.534 385.909C168.849 385.49 169.111 385.035 169.317 384.553C170.827 384.241 172.225 384.175 173.286 383.095C171.941 382.471 170.746 381.181 169.479 380.403C169.155 380.171 168.814 379.962 168.459 379.779" fill="#89A5FB"/>
<path d="M161.561 308.152C161.707 308.121 161.851 308.083 161.994 308.043C161.851 308.083 161.704 308.117 161.561 308.152Z" fill="#B0BCE1"/>
<path d="M144.99 315.818C144.969 316.146 144.976 316.475 145.009 316.801C145.156 318.394 145.652 319.172 146.288 319.471C146.334 319.493 146.381 319.512 146.429 319.528C146.802 319.648 147.201 319.658 147.58 319.559C147.433 318.55 147.302 317.582 147.209 316.748C147.14 316.149 147.084 315.612 147.05 315.165C146.834 315.315 146.07 314.444 146.07 314.444C145.418 314.569 145.09 315.159 144.99 315.818ZM152.36 325.108C152.865 325.267 153.645 324.012 154.048 324.108C154.566 324.233 154.959 324.308 155.14 324.343H155.18V324.368L155.208 324.349H155.243V324.324C155.336 324.268 155.536 324.143 155.804 323.965C155.985 323.846 156.197 323.699 156.428 323.537C156.843 323.225 158.016 323.297 158.5 322.884C158.59 323.659 158.36 323.971 158.853 325.027C158.769 325.129 158.679 325.227 158.584 325.32C158.291 325.615 157.96 325.871 157.601 326.082C157.092 326.385 156.533 326.596 155.951 326.707C155.449 326.801 154.936 326.821 154.428 326.766C153.933 326.712 153.449 326.581 152.993 326.379C152.884 326.329 152.896 326.251 152.79 326.191C152.934 325.476 153.081 327.29 152.36 325.108ZM160.924 319.955C161.366 320.201 161.871 320.31 162.375 320.268C162.504 320.25 162.631 320.216 162.753 320.168C163.377 319.909 163.926 319.19 164.241 317.704C164.578 316.114 164.241 315.471 163.71 315.287C163.643 315.354 163.564 315.407 163.476 315.443C163.183 315.734 162.038 315.787 161.854 316.111C161.823 316.274 161.785 316.445 161.745 316.627C161.729 316.708 161.71 316.789 161.692 316.873L161.664 316.998C161.645 317.083 161.623 317.167 161.604 317.257V317.295C161.567 317.451 161.529 317.607 161.492 317.776L161.451 317.941C161.451 317.941 161.451 317.941 161.451 317.96C161.43 318.044 161.408 318.132 161.389 318.216C161.37 318.3 161.358 318.347 161.339 318.413C161.199 318.912 161.068 319.428 160.924 319.955Z" fill="#7893E8"/>
<path d="M149.505 312.811L153.249 312.061C153.14 312.002 153.026 311.952 152.909 311.911C152.399 311.733 151.851 311.689 151.319 311.783C150.787 311.878 150.288 312.108 149.87 312.451C149.736 312.558 149.614 312.678 149.505 312.811Z" fill="#E6ECFF"/>
<path d="M147.05 315.156C147.087 315.602 147.14 316.14 147.209 316.739C147.306 317.582 147.433 318.547 147.58 319.549C147.646 320.002 147.717 320.464 147.792 320.927C147.948 321.898 148.703 322.819 149.633 323.612C150.221 324.109 150.847 324.559 151.505 324.958C151.957 325.236 152.388 325.473 152.753 325.664C153.224 325.91 153.589 326.079 153.755 326.154L153.792 326.173H153.823H153.858C153.96 326.138 154.17 326.066 154.482 325.96C154.684 325.888 154.928 325.798 155.19 325.695C155.664 325.507 156.219 325.27 156.787 324.986C157.501 324.636 158.179 324.218 158.812 323.737C159.592 323.137 160.213 322.438 160.434 321.66C160.6 321.08 160.746 320.502 160.906 319.94C161.065 319.378 161.177 318.894 161.299 318.407C161.299 318.341 161.333 318.275 161.349 318.21C161.364 318.144 161.392 318.035 161.411 317.954C161.411 317.954 161.411 317.954 161.411 317.935C161.411 317.879 161.439 317.823 161.452 317.77C161.492 317.604 161.53 317.457 161.564 317.289V317.251C161.583 317.164 161.604 317.076 161.623 316.992L161.651 316.867C161.67 316.783 161.689 316.702 161.704 316.62C161.745 316.439 161.782 316.264 161.814 316.105C161.805 316.121 161.798 316.138 161.792 316.155C161.754 315.915 161.72 315.671 161.686 315.431C161.417 314.965 161.018 314.278 160.556 313.488L160.307 313.064L159.976 312.499L159.723 312.068C159.636 311.924 159.552 311.777 159.464 311.63L159.052 310.934C158.52 311.353 157.963 311.741 157.386 312.096C157.289 312.096 157.192 312.105 157.096 312.121L157.233 312.189C154.453 313.843 151.294 314.753 148.061 314.834H147.593C147.599 314.859 147.087 315.193 147.05 315.156Z" fill="#C7D5FF"/>
<path d="M161.214 300.789L161.118 300.732C161.9 301.369 162.597 302.104 163.192 302.918C162.741 302.04 162.056 301.303 161.214 300.789ZM157.165 312.155C152.9 312.78 147.692 313.339 143.315 313.173L143.356 313.239C143.668 313.788 144.089 314.909 144.604 315.506C144.709 315.633 144.838 315.739 144.984 315.818C145.081 315.159 145.408 314.569 146.061 314.438C146.061 314.438 146.828 315.306 147.043 315.159C147.062 315.181 147.592 314.847 147.621 314.847H148.089C151.323 314.766 154.483 313.855 157.264 312.202L157.165 312.155ZM144.132 302.953L144.198 302.981C144.747 302.221 145.385 301.531 146.098 300.923C145.312 301.459 144.643 302.149 144.132 302.953ZM165.47 310.644C165.342 311.184 165.214 311.727 165.071 312.258C164.986 312.57 164.896 312.883 164.799 313.195L163.845 315.159L163.748 315.253L163.714 315.287C163.647 315.354 163.567 315.407 163.48 315.443C163.186 315.734 162.041 315.787 161.857 316.111C161.849 316.128 161.841 316.144 161.835 316.161C161.801 315.921 161.764 315.677 161.729 315.437C161.729 315.343 161.701 315.25 161.689 315.156C161.508 313.934 161.328 312.715 161.149 311.499L162.634 311.228C163.882 310.993 164.771 310.809 165.189 310.719L165.436 310.666V310.644H165.47Z" fill="#0F1521"/>
<path d="M159.09 310.953L159.501 311.649L159.76 312.086L160.013 312.517L160.344 313.082L160.593 313.507C161.055 314.297 161.451 314.984 161.723 315.449C161.723 315.356 161.695 315.262 161.682 315.171C161.445 313.568 161.209 311.968 160.974 310.369C160.924 310.038 160.877 309.71 160.827 309.379L160.515 309.691C160.063 310.137 159.587 310.558 159.09 310.953Z" fill="#7893E8"/>
<path d="M155.439 302.147C155.555 302.147 155.673 302.168 155.789 302.184C155.904 302.2 155.985 302.209 156.082 302.228L156.282 302.262L156.491 302.306L156.697 302.356C156.788 302.377 156.879 302.402 156.968 302.431C157.083 302.465 157.202 302.503 157.314 302.543L157.411 302.578C157.486 302.606 157.564 302.631 157.639 302.662L157.77 302.715L157.863 302.752C157.9 302.766 157.935 302.782 157.97 302.799L158.282 302.946C158.384 302.996 158.487 303.049 158.594 303.105C158.7 303.162 158.703 303.165 158.756 303.196L158.871 303.265L158.902 303.283L158.968 303.324L159.052 303.377C159.401 303.595 159.734 303.838 160.047 304.105L160.097 304.148C160.33 304.345 160.552 304.553 160.762 304.773C160.793 304.807 160.824 304.838 160.852 304.873C160.88 304.907 160.946 304.976 160.99 305.029L161.121 305.185C161.174 305.247 161.224 305.313 161.274 305.375C161.324 305.438 161.333 305.45 161.361 305.491C161.389 305.532 161.458 305.625 161.504 305.694L161.614 305.853C161.639 305.891 161.664 305.928 161.685 305.966L161.723 306.025C161.738 306.047 161.748 306.069 161.763 306.087C161.81 306.165 161.857 306.244 161.901 306.325C161.944 306.406 161.988 306.484 162.029 306.568C162.069 306.653 162.11 306.731 162.147 306.815C162.185 306.899 162.222 306.981 162.256 307.065C162.291 307.149 162.291 307.149 162.306 307.19C162.322 307.152 162.334 307.112 162.347 307.074L162.372 306.993V306.965C162.372 306.937 162.387 306.906 162.397 306.877C162.406 306.849 162.431 306.743 162.447 306.674C162.462 306.606 162.447 306.625 162.462 306.6C162.464 306.575 162.464 306.55 162.462 306.525L162.481 306.397C162.483 306.388 162.483 306.38 162.481 306.372C162.483 306.36 162.483 306.349 162.481 306.337C162.481 306.3 162.481 306.265 162.481 306.228C162.483 306.22 162.483 306.211 162.481 306.203C162.481 306.147 162.481 306.094 162.481 306.037C162.481 305.981 162.481 305.944 162.481 305.897C162.481 305.85 162.481 305.738 162.481 305.66V305.616C162.483 305.586 162.483 305.556 162.481 305.525C162.483 305.497 162.483 305.469 162.481 305.441C162.481 305.382 162.481 305.319 162.481 305.26C162.481 305.26 162.481 305.26 162.481 305.241C162.481 305.179 162.465 305.119 162.456 305.057C162.447 304.995 162.456 304.966 162.431 304.92L162.403 304.782C162.403 304.763 162.403 304.742 162.403 304.723C162.398 304.695 162.39 304.668 162.381 304.642C162.381 304.604 162.362 304.567 162.35 304.529C162.351 304.514 162.351 304.498 162.35 304.482C162.35 304.448 162.331 304.411 162.319 304.376C162.291 304.286 162.26 304.198 162.228 304.111L162.182 303.989C162.144 303.898 162.104 303.811 162.063 303.724L162.016 303.63L161.932 303.477C161.932 303.446 161.898 303.418 161.879 303.386C161.86 303.355 161.841 303.327 161.826 303.296C161.81 303.265 161.751 303.177 161.71 303.121L161.629 303.005C161.586 302.949 161.545 302.893 161.501 302.84L161.364 302.681C161.334 302.644 161.302 302.61 161.267 302.578C161.223 302.529 161.176 302.484 161.127 302.44L160.98 302.309L160.88 302.225L160.74 302.119L160.643 302.05L160.494 301.95L160.341 301.859C160.306 301.839 160.271 301.82 160.235 301.803L160.129 301.75L160.029 301.703L159.891 301.644L159.788 301.6H159.742L159.692 301.581L159.592 301.547L159.467 301.507C159.367 301.475 159.264 301.447 159.155 301.425L159.008 301.394L158.871 301.369H158.824H158.803L158.687 301.354H158.544H158.478H158.369H158.194H158.007C157.907 301.354 157.81 301.354 157.695 301.354H157.598L157.402 301.378L157.208 301.413L157.015 301.453L156.824 301.503L156.653 301.556H156.615L156.488 301.6L156.431 301.622L156.272 301.688L156.138 301.75L156.023 301.806H155.991L155.879 301.866C155.725 301.948 155.578 302.042 155.439 302.147ZM165.445 310.65V310.671L165.199 310.725L165.376 310.671L165.445 310.65Z" fill="#5A6782"/>
<path d="M160.303 315.555L156.559 314.135C157.253 313.923 157.996 313.947 158.674 314.204C159.352 314.461 159.925 314.937 160.303 315.555ZM151.112 314.569L147.898 315.568C148.275 315.102 148.781 314.758 149.354 314.58C149.926 314.402 150.538 314.398 151.112 314.569ZM149.967 315.583C150.394 315.449 150.903 315.852 151.093 316.48C151.284 317.107 151.093 317.729 150.675 317.854C150.257 317.979 149.739 317.588 149.549 316.961C149.358 316.333 149.543 315.718 149.967 315.583ZM157.034 315.677C157.477 315.637 157.885 316.133 157.945 316.789C158.004 317.445 157.692 318.007 157.246 318.038C156.8 318.069 156.394 317.579 156.335 316.926C156.276 316.274 156.588 315.718 157.034 315.677Z" fill="#0F1521"/>
<path d="M152.575 315.193C152.756 316.08 152.934 316.967 153.115 317.854C153.082 317.742 153.023 317.64 152.942 317.556C152.862 317.472 152.762 317.408 152.652 317.37C152.542 317.332 152.425 317.321 152.31 317.338C152.195 317.354 152.085 317.398 151.99 317.466C151.896 317.534 151.819 317.623 151.765 317.727C151.712 317.83 151.684 317.945 151.685 318.062C151.685 318.178 151.713 318.293 151.766 318.396C151.819 318.5 151.897 318.589 151.992 318.656L153.948 320.043" fill="#6287FB"/>
<path d="M152.051 321.379C153.226 321.701 154.473 321.645 155.615 321.218C156.757 320.792 157.735 320.017 158.413 319.003C158.487 319.79 158.305 320.58 157.894 321.255C157.483 321.931 156.865 322.455 156.132 322.75C154.656 323.312 152.837 322.735 152.051 321.379Z" fill="white"/>
<path d="M123.344 320.886C123.656 318.766 123.968 316.647 124.28 314.528C124.364 313.95 123.718 313.447 123.141 313.538C122.856 313.606 122.594 313.752 122.386 313.959C122.178 314.166 122.031 314.427 121.962 314.712C121.829 315.283 121.804 315.874 121.89 316.455C121.289 316.175 120.646 315.997 119.987 315.927C119.656 315.895 119.323 315.944 119.016 316.069C118.708 316.194 118.435 316.392 118.221 316.645C117.883 317.102 117.67 317.639 117.601 318.203C117.533 318.767 117.611 319.34 117.829 319.864C118.047 320.389 118.398 320.848 118.846 321.198C119.294 321.547 119.824 321.774 120.386 321.857C120.417 322.053 120.445 322.25 120.477 322.447C121.314 321.734 122.291 321.202 123.344 320.886Z" fill="#89A5FB"/>
<path d="M125.453 323L120.149 324.755C119.977 323.987 119.812 323.194 119.65 322.382L123.643 320.733C123.643 320.733 124.342 321.582 125.453 323ZM165.47 309.885C165.47 310.147 165.47 310.41 165.445 310.666L165.373 310.687H141.998C141.98 310.422 141.97 310.157 141.97 309.885C141.97 309.613 141.97 309.26 142.008 308.948C142.117 307.552 142.476 306.186 143.068 304.917C143.382 304.242 143.76 303.598 144.198 302.996C145.464 301.244 147.188 299.875 149.18 299.039C151.172 298.203 153.356 297.933 155.492 298.257C157.627 298.582 159.633 299.489 161.287 300.879C162.942 302.269 164.182 304.089 164.871 306.138C164.958 306.397 165.036 306.662 165.105 306.928C165.349 307.895 165.471 308.888 165.47 309.885Z" fill="#3D7BF7"/>
<path d="M165.373 310.672L165.196 310.725C164.777 310.815 163.879 310.999 162.64 311.234C162.188 311.318 161.704 311.412 161.155 311.505C159.988 311.711 158.64 311.936 157.18 312.152C152.915 312.776 147.708 313.335 143.331 313.17C141.147 313.088 139.178 312.826 137.627 312.305C137.605 312.305 137.627 312.305 137.627 312.267C137.524 310.394 141.995 310.675 141.995 310.675H165.395L165.373 310.672Z" fill="#316DE4"/>
<path d="M208.579 378.552V435.497C208.58 436.574 208.503 437.65 208.348 438.716H53.4278C53.2734 437.65 53.1963 436.574 53.1969 435.497V378.552C53.1969 372.604 55.5577 366.9 59.76 362.694C63.9623 358.488 69.6618 356.125 75.6047 356.125H186.168C189.111 356.125 192.025 356.704 194.744 357.831C197.463 358.958 199.934 360.61 202.015 362.693C204.096 364.775 205.747 367.248 206.873 369.969C207.999 372.69 208.579 375.606 208.579 378.552Z" fill="#0F1521"/>
<path d="M112.386 356.125H112.287V356.122L112.386 356.125Z" fill="#4565A5"/>
<path d="M97.8691 351.84V351.95H107.878L97.8691 351.84ZM97.8691 351.84V351.95H107.878L97.8691 351.84ZM97.8691 351.84V351.95H107.878L97.8691 351.84ZM129.347 285.931C123.698 285.931 118.201 287.759 113.676 291.143C109.151 294.527 105.841 299.285 104.24 304.707L89.13 355.89L109.784 356.122H182.412V353.152H111.173L91.5386 352.94L97.8691 332.293L105.903 306.087C109.023 295.895 118.739 288.913 129.765 288.913H184.081V290.071H186.486V285.943L129.347 285.931ZM97.8691 351.84V351.95H107.878L97.8691 351.84ZM97.8691 351.84V351.95H107.878L97.8691 351.84Z" fill="#0F1521"/>
<path d="M97.8689 351.84V351.95H107.878L97.8689 351.84Z" fill="#133BB7"/>
<path d="M184.084 290.059V288.901H129.765C118.739 288.901 109.026 295.896 105.903 306.075L97.8691 332.281L91.5511 352.94L111.185 353.153H182.415V427.865H186.49V290.056H184.084V290.059ZM112.224 351.997H112.143L107.887 351.95H97.8691V336.587L99.1858 332.296L107.054 306.631C110.065 296.807 119.428 290.081 130.058 290.081H182.415V352.016H112.215L112.224 351.997Z" fill="#1A2335"/>
<path d="M107.878 351.95H97.8689V351.84L107.878 351.95Z" fill="#BCCAF7"/>
<path d="M53.2375 403.251V422.184H52.9754C51.3128 422.183 49.6798 421.745 48.2405 420.912C46.8013 420.079 45.6066 418.881 44.7767 417.439C43.9468 415.997 43.511 414.362 43.5131 412.698C43.5151 411.034 43.955 409.4 44.7885 407.96C45.6229 406.528 46.8179 405.339 48.2543 404.513C49.6908 403.687 51.3186 403.252 52.9754 403.251H53.2375Z" fill="#507AFB"/>
<path d="M53.2375 417.928V422.197H52.9754C51.3128 422.196 49.6798 421.757 48.2405 420.924C46.8013 420.091 45.6066 418.894 44.7767 417.452C43.9468 416.01 43.511 414.375 43.5131 412.711C43.5151 411.047 43.955 409.413 44.7885 407.973C45.2039 407.255 45.7128 406.596 46.3017 406.012C47.1853 410.661 49.6331 414.866 53.2375 417.928Z" fill="#88A5FD"/>
<path d="M51.615 422.091C50.0852 421.867 48.6336 421.27 47.3871 420.355C46.1407 419.439 45.1373 418.232 44.4647 416.838C43.7921 415.445 43.4708 413.908 43.5289 412.361C43.587 410.815 44.0226 409.306 44.7978 407.967C44.751 413.341 47.403 418.731 51.615 422.091Z" fill="#FCFCFD"/>
<path d="M53.4496 402.852C57.5305 408.626 57.2965 417.085 52.9067 422.625C52.863 416.195 52.8068 409.766 53.4496 402.852Z" fill="#1A2335"/>
<path d="M402.425 264.918H186.49V427.868H402.425V264.918Z" fill="#0F1521"/>
<path d="M162.026 428.486H79.2521C81.54 419.231 86.8589 411.01 94.3601 405.133C101.861 399.257 111.113 396.064 120.639 396.064C130.165 396.064 139.416 399.257 146.918 405.133C154.419 411.01 159.738 419.231 162.026 428.486ZM380.029 428.486H294.788C294.788 410.578 313.87 396.061 337.407 396.061C360.944 396.061 380.029 410.578 380.029 428.486Z" fill="#1A2335"/>
<path d="M414.683 433.292C414.682 434.73 414.111 436.109 413.095 437.126C412.079 438.143 410.701 438.715 409.264 438.716H47.0317C45.5944 438.716 44.216 438.144 43.1996 437.127C42.1833 436.11 41.6123 434.73 41.6123 433.292C41.6123 431.853 42.1833 430.474 43.1996 429.456C44.216 428.439 45.5944 427.868 47.0317 427.868H409.264C409.975 427.868 410.68 428.008 411.338 428.281C411.995 428.553 412.593 428.953 413.096 429.456C413.599 429.96 413.998 430.558 414.271 431.216C414.543 431.874 414.683 432.579 414.683 433.292Z" fill="#1A2335"/>
<path d="M120.639 473.877C141.129 473.877 157.739 458.135 157.739 438.716C157.739 419.297 141.129 403.555 120.639 403.555C100.149 403.555 83.5389 419.297 83.5389 438.716C83.5389 458.135 100.149 473.877 120.639 473.877Z" fill="#3D7DFE"/>
<path d="M120.639 465.824C136.435 465.824 149.24 453.687 149.24 438.716C149.24 423.745 136.435 411.608 120.639 411.608C104.843 411.608 92.0378 423.745 92.0378 438.716C92.0378 453.687 104.843 465.824 120.639 465.824Z" fill="#38445C"/>
<path d="M120.639 461.314C133.807 461.314 144.482 451.197 144.482 438.716C144.482 426.235 133.807 416.117 120.639 416.117C107.471 416.117 96.7958 426.235 96.7958 438.716C96.7958 451.197 107.471 461.314 120.639 461.314Z" fill="#3D7DFE"/>
<path d="M337.41 473.877C357.9 473.877 374.51 458.135 374.51 438.716C374.51 419.297 357.9 403.555 337.41 403.555C316.921 403.555 300.311 419.297 300.311 438.716C300.311 458.135 316.921 473.877 337.41 473.877Z" fill="#3D7DFE"/>
<path d="M337.41 465.824C353.206 465.824 366.011 453.687 366.011 438.716C366.011 423.745 353.206 411.608 337.41 411.608C321.614 411.608 308.809 423.745 308.809 438.716C308.809 453.687 321.614 465.824 337.41 465.824Z" fill="#38445C"/>
<path d="M337.41 461.314C350.578 461.314 361.253 451.197 361.253 438.716C361.253 426.235 350.578 416.117 337.41 416.117C324.242 416.117 313.567 426.235 313.567 438.716C313.567 451.197 324.242 461.314 337.41 461.314Z" fill="#3D7DFE"/>
<path d="M101.204 336.586H97.8691V363.288H101.204V336.586Z" fill="#3A79F8"/>
<path d="M97.8692 351.84H89.1332V355.89H97.8692V351.84Z" fill="#3A79F8"/>
<path d="M111.656 353.155V329.96C111.656 328.925 112.067 327.932 112.799 327.2C113.53 326.468 114.522 326.057 115.556 326.057V353.155H111.656Z" fill="#1A2335"/>
<path d="M556.135 405.884H427.591V472.575H556.135V405.884Z" fill="#3D7DFE"/>
<path d="M458.947 405.884H427.591V472.575H458.947V405.884Z" fill="#3A79F8"/>
<path d="M518.929 343.063H443.272V405.884H518.929V343.063Z" fill="#3D7DFE"/>
<path d="M462.369 343.063H443.272V405.884H462.369V343.063Z" fill="#3A79F8"/>
<path d="M443.075 406.037L462.366 404.164L501.491 406.328L443.075 406.037Z" fill="#3773EC"/>
<path d="M552.306 411.605H526.045V417.775H552.306V411.605Z" fill="white"/>
<path d="M552.728 421.02H526.467V427.19H552.728V421.02Z" fill="white"/>
<path d="M516.186 346.679H497.822V352.849H516.186V346.679Z" fill="white"/>
<path d="M516.186 355.113H497.822V361.284H516.186V355.113Z" fill="white"/>
<path d="M450.526 275.404C450.526 257.917 464.313 243.759 481.323 243.759C498.334 243.759 512.127 257.927 512.127 275.404C512.127 292.882 482.581 324.873 482.581 324.873C482.581 324.873 450.526 292.882 450.526 275.404Z" fill="#3D7BF7"/>
<path d="M481.323 292.142C490.54 292.142 498.012 284.664 498.012 275.439C498.012 266.214 490.54 258.736 481.323 258.736C472.106 258.736 464.634 266.214 464.634 275.439C464.634 284.664 472.106 292.142 481.323 292.142Z" fill="#1A2335"/>
<path d="M276.311 366.571C276.311 365.82 276.609 365.101 277.139 364.57C277.669 364.04 278.388 363.742 279.138 363.742H387.09C387.84 363.742 388.558 364.04 389.089 364.57C389.619 365.101 389.917 365.82 389.917 366.571C389.917 367.321 389.619 368.041 389.089 368.571C388.558 369.102 387.84 369.4 387.09 369.4H279.138C278.388 369.4 277.669 369.102 277.139 368.571C276.609 368.041 276.311 367.321 276.311 366.571ZM193.319 274.287C193.319 273.537 193.617 272.817 194.147 272.286C194.677 271.756 195.396 271.458 196.146 271.458H393.919C394.669 271.458 395.388 271.756 395.918 272.286C396.448 272.817 396.746 273.537 396.746 274.287C396.746 275.037 396.448 275.757 395.918 276.287C395.388 276.818 394.669 277.116 393.919 277.116H196.146C195.396 277.116 194.677 276.818 194.147 276.287C193.617 275.757 193.319 275.037 193.319 274.287ZM317.826 376.875C317.826 376.125 318.124 375.405 318.654 374.875C319.184 374.344 319.903 374.046 320.653 374.046H386.45C387.2 374.046 387.919 374.344 388.449 374.875C388.979 375.405 389.277 376.125 389.277 376.875C389.277 377.626 388.979 378.345 388.449 378.876C387.919 379.406 387.2 379.705 386.45 379.705H320.653C319.903 379.705 319.184 379.406 318.654 378.876C318.124 378.345 317.826 377.626 317.826 376.875ZM337.482 387.18C337.482 386.43 337.78 385.71 338.31 385.18C338.84 384.649 339.559 384.351 340.309 384.351H387.074C387.824 384.351 388.543 384.649 389.073 385.18C389.603 385.71 389.901 386.43 389.901 387.18C389.901 387.93 389.603 388.65 389.073 389.181C388.543 389.711 387.824 390.009 387.074 390.009H340.309C339.559 390.009 338.84 389.711 338.31 389.181C337.78 388.65 337.482 387.93 337.482 387.18ZM331.919 225.424H298.766V225.674C294.113 225.619 289.441 225.685 284.751 225.87V225.424H248.453C247.771 223.864 247.468 222.165 247.568 220.465C247.669 218.766 248.171 217.115 249.033 215.647C251.657 211.334 256.833 209.089 261.85 208.721C266.867 208.352 271.881 209.576 276.773 210.791C272.951 204.736 273.79 196.115 278.717 190.931C283.643 185.747 292.186 184.433 298.429 187.933C304.672 191.434 308.032 199.406 306.176 206.326C312.322 202.063 321.342 202.578 326.974 207.503C331.91 211.834 333.825 219.185 331.919 225.424Z" fill="#3D7DFE"/>
<path d="M298.962 218.954H284.947V240.975H298.962V218.954Z" fill="#38445C"/>
<path d="M292.07 203.084L279.977 220.122H304.163L292.07 203.084Z" fill="#38445C"/>
<path d="M53.4681 250.555V229.474C53.4681 225.23 55.1525 221.16 58.1506 218.16C61.1487 215.159 65.215 213.473 69.455 213.473H161.657C165.897 213.473 169.964 215.159 172.962 218.16C175.96 221.16 177.644 225.23 177.644 229.474V250.555C177.644 254.798 175.96 258.868 172.962 261.869C169.964 264.869 165.897 266.555 161.657 266.555H69.4581C67.3583 266.556 65.279 266.143 63.3388 265.339C61.3986 264.535 59.6357 263.357 58.1508 261.871C56.6658 260.385 55.488 258.621 54.6845 256.679C53.8811 254.737 53.4677 252.656 53.4681 250.555Z" fill="#3D7DFE"/>
<path d="M73.1303 230.695L75.3549 237.896H82.5496L76.7277 242.349L78.9523 249.549L73.1303 245.1L67.3084 249.549L69.533 242.349L63.7111 237.896H70.9058L73.1303 230.695Z" fill="#38445C"/>
<path d="M94.3183 230.695L96.5398 237.896H103.738L97.9157 242.349L100.137 249.549L94.3183 245.1L88.4964 249.549L90.721 242.349L84.899 237.896H92.0938L94.3183 230.695Z" fill="#38445C"/>
<path d="M115.509 230.479L117.734 237.68H124.929L119.107 242.133L121.331 249.334L115.509 244.884L109.687 249.334L111.912 242.133L106.09 237.68H113.285L115.509 230.479Z" fill="#38445C"/>
<path d="M136.85 230.479L139.075 237.68H146.269L140.448 242.133L142.672 249.334L136.85 244.884L131.031 249.334L133.253 242.133L127.431 237.68H134.629L136.85 230.479Z" fill="#38445C"/>
<path d="M157.982 230.479L160.206 237.68H167.401L161.579 242.133L163.804 249.334L157.982 244.884L152.16 249.334L154.385 242.133L148.563 237.68H155.757L157.982 230.479Z" fill="#38445C"/>
<path d="M177.264 251.192L175.81 300.392L158.229 266.658L177.264 251.192Z" fill="#3D7DFE"/>
</g>
<defs>
<clipPath id="clip0_404_355">
<rect width="572" height="471" fill="white"/>
</clipPath>
</defs>
</svg>
